<svg width="73" height="17" viewBox="0 0 73 17" fill="none" xmlns="http://www.w3.org/2000/svg">
<g clip-path="url(#clip0_34_180)">
<path d="M37.7334 4.41406H37.8915V14.6489C37.8901 15.2718 37.6587 15.8687 37.2476 16.3093C36.8365 16.7498 36.2793 16.9982 35.6978 17H35.4336V6.8739C35.4349 6.22132 35.6775 5.5959 36.1085 5.13478C36.5396 4.67365 37.1243 4.41451 37.7334 4.41406Z" fill="#00B4FF"/>
<path d="M25.3665 0H25.5253V9.684L29.7802 5.11868C29.9938 4.88954 30.2476 4.70818 30.5272 4.58514C30.8068 4.4621 31.1067 4.39987 31.409 4.40201C31.7113 4.40414 32.0097 4.47061 32.2877 4.5976C32.5658 4.72458 32.8178 4.90947 33.0285 5.14161L33.1416 5.26664L28.3017 10.4593C28.2274 10.5389 28.148 10.6127 28.0638 10.6802C28.1749 10.7633 28.2784 10.857 28.3738 10.9599L33.1401 16.0735L32.9564 16.2775C32.7552 16.4993 32.5146 16.676 32.249 16.7974C31.9833 16.9187 31.6978 16.9823 31.409 16.9843C31.1202 16.9864 30.8338 16.927 30.5667 16.8094C30.2996 16.6918 30.0571 16.5186 29.853 16.2996L25.5246 11.6552V14.6157C25.5261 15.2431 25.2965 15.8458 24.8853 16.2927C24.4741 16.7395 23.915 16.9943 23.3293 17.0017H23.0674V2.49812C23.0642 1.84056 23.3044 1.20845 23.7354 0.740222C24.1664 0.271994 24.7527 0.0058383 25.3665 0Z" fill="#00B4FF"/>
<path d="M0.000101162 14.4287V14.2536L0.0279969 12.2867C0.0177136 12.0364 0.0306017 11.7855 0.0667409 11.5379V11.4036H0.0946367C0.215429 10.89 0.490089 10.4331 0.877267 10.1036C1.26444 9.77412 1.74278 9.59025 2.23718 9.58036H7.3576C7.47068 9.537 7.57012 9.45984 7.64353 9.35801C7.71694 9.25617 7.76159 9.13391 7.77216 9.00574V7.45785C7.75684 7.36588 7.71597 7.28099 7.65515 7.21402C7.59434 7.14705 7.51662 7.10107 7.43121 7.08214H2.2953C1.99276 7.07948 1.6942 7.01283 1.41581 6.88593C1.13742 6.75903 0.885033 6.57443 0.673473 6.34275C0.461913 6.11106 0.295265 5.83686 0.182973 5.53591C0.0706809 5.23496 0.014505 4.91317 0.0186983 4.58911V4.41406H8.13248C8.43907 4.44086 8.73744 4.53288 9.01042 4.68477C9.2834 4.83667 9.52577 5.04533 9.72254 5.29861C9.9193 5.5519 10.0666 5.84467 10.1565 6.15982C10.2463 6.47497 10.2767 6.80619 10.2456 7.13402V16.9149H9.98289C9.683 16.9141 9.38639 16.8469 9.11193 16.7175C8.83746 16.588 8.59125 16.3992 8.38819 16.1628C8.17393 16.4272 7.90816 16.6387 7.61021 16.7826C7.31226 16.9266 6.9886 16.9996 6.66175 16.9966L2.28135 16.9516C1.77304 16.9406 1.28164 16.752 0.882691 16.4144C0.483741 16.0768 0.198996 15.6087 0.0713902 15.0815H0.0613168V15.0382C0.0158205 14.8388 -0.0065531 14.6341 -0.00532301 14.4287H0.000101162ZM7.77603 11.3611C7.56724 11.6309 7.30524 11.8478 7.0089 11.9962C6.71256 12.1446 6.38913 12.2209 6.062 12.2196L3.00664 12.2111C2.95071 12.2069 2.89431 12.2154 2.84159 12.2358C2.78887 12.2562 2.74106 12.2881 2.70056 12.3297C2.66007 12.3712 2.62814 12.4214 2.6068 12.4769C2.58546 12.5325 2.57512 12.5922 2.57658 12.6523L2.56806 13.9833C2.56806 14.4083 2.85962 14.359 3.04926 14.359H7.38704C7.48898 14.3567 7.58678 14.3123 7.65903 14.2352C7.73127 14.1582 7.77263 14.0543 7.77526 13.9451L7.77603 11.3611Z" fill="#00B4FF"/>
<path d="M36.6371 3.29379C37.4426 3.29379 38.0955 2.59432 38.0955 1.73149C38.0955 0.868655 37.4426 0.169189 36.6371 0.169189C35.8317 0.169189 35.1787 0.868655 35.1787 1.73149C35.1787 2.59432 35.8317 3.29379 36.6371 3.29379Z" fill="#00B4FF"/>
<path d="M13.0452 13.6466L17.8417 7.07187H14.1502C13.5439 7.06135 12.9662 6.7943 12.5431 6.32895C12.12 5.8636 11.8861 5.23775 11.8922 4.58817V4.41821H20.0331C21.9938 4.41821 22.1753 5.73062 21.0645 7.25127L15.8929 14.3352L19.6108 14.319C20.1999 14.332 20.7614 14.5901 21.1761 15.0385C21.5907 15.487 21.8259 16.0907 21.8324 16.7219V17.0032H13.7984C12.7709 17.0032 12.3077 16.6939 12.1014 16.3097C11.6872 15.5337 12.32 14.6386 13.0452 13.6466Z" fill="#00B4FF"/>
<path d="M51.132 8.48291H45.5458C45.122 8.48291 44.715 8.66323 44.4153 8.98428C44.1156 9.30532 43.9473 9.74082 43.9473 10.1948V15.2888C43.9475 15.7427 44.1164 16.1779 44.4161 16.4988C44.7157 16.8196 45.1221 16.9999 45.5458 16.9999H51.132C51.1321 16.8063 51.0965 16.6145 51.0274 16.4356C50.9583 16.2567 50.8568 16.0941 50.729 15.9571C50.6013 15.8202 50.4497 15.7116 50.2827 15.6375C50.1157 15.5633 49.9365 15.5252 49.7558 15.5252H46.1541C45.955 15.5252 45.7641 15.4405 45.6233 15.2897C45.4826 15.1389 45.4033 14.9343 45.4033 14.7211V10.8366C45.4033 10.731 45.4229 10.6265 45.4606 10.5289C45.4983 10.4314 45.5536 10.3429 45.6233 10.2683C45.693 10.1937 45.7756 10.1345 45.8666 10.0942C45.9577 10.0539 46.0556 10.0332 46.1541 10.0333H49.7558C49.9365 10.0333 50.1157 9.99514 50.2827 9.92102C50.4497 9.8469 50.6013 9.73829 50.729 9.60134C50.8568 9.46438 50.9583 9.30182 51.0274 9.1229C51.0965 8.94398 51.1321 8.75218 51.132 8.55855V8.48291Z" fill="#00B4FF"/>
<path d="M58.4439 10.0903C58.5781 10.0903 58.7068 10.1472 58.8019 10.2487C58.8969 10.3502 58.951 10.4879 58.9514 10.6317V14.8494C58.951 14.9932 58.8969 15.1309 58.8019 15.2324C58.7068 15.3339 58.5781 15.3908 58.4439 15.3908H54.2742C54.14 15.3908 54.0113 15.3339 53.9162 15.2324C53.8212 15.1309 53.7679 14.9932 53.7675 14.8494V10.6317C53.7679 10.4879 53.8212 10.3502 53.9162 10.2487C54.0113 10.1472 54.14 10.0903 54.2742 10.0903H58.4439ZM58.4439 8.48291H54.2742C53.742 8.48291 53.2318 8.70939 52.8554 9.11252C52.4791 9.51566 52.2681 10.0625 52.2681 10.6326V14.8502C52.2681 15.4204 52.4791 15.9672 52.8554 16.3703C53.2318 16.7734 53.742 16.9999 54.2742 16.9999H58.4439C58.9762 16.9999 59.487 16.7734 59.8635 16.3703C60.2399 15.9672 60.4514 15.4204 60.4516 14.8502V10.6326C60.4514 10.0624 60.2399 9.51553 59.8635 9.11242C59.487 8.70931 58.9762 8.48291 58.4439 8.48291Z" fill="#00B4FF"/>
<path d="M62.3159 10.5917V16.9991H62.5484C62.9089 16.9991 63.2551 16.8456 63.51 16.5725C63.7649 16.2995 63.9075 15.9292 63.9075 15.543V10.7209C63.9074 10.6306 63.9241 10.5411 63.9563 10.4577C63.9886 10.3742 64.0362 10.2984 64.0958 10.2345C64.1554 10.1706 64.2263 10.1199 64.3043 10.0854C64.3822 10.0509 64.4656 10.0332 64.5499 10.0333H66.3561C66.4406 10.0332 66.5245 10.0509 66.6026 10.0854C66.6806 10.1199 66.7512 10.1705 66.811 10.2344C66.8708 10.2982 66.9181 10.3741 66.9505 10.4576C66.9829 10.5411 67 10.6305 67.0001 10.7209V15.543C67 15.7343 67.0349 15.9236 67.1031 16.1003C67.1714 16.277 67.2714 16.4376 67.3976 16.5729C67.5238 16.7081 67.6743 16.8154 67.8393 16.8885C68.0042 16.9616 68.1807 16.9992 68.3592 16.9991H68.6816V10.6844C68.6817 10.594 68.698 10.5045 68.7304 10.421C68.7628 10.3375 68.8101 10.2617 68.8699 10.1979C68.9296 10.134 69.0011 10.0834 69.0791 10.0489C69.1571 10.0144 69.2403 9.99665 69.3247 9.99677H70.9039C70.9883 9.99665 71.0716 10.0143 71.1496 10.0489C71.2275 10.0834 71.2984 10.1341 71.358 10.198C71.4176 10.2618 71.4653 10.3377 71.4975 10.4211C71.5297 10.5046 71.5456 10.594 71.5455 10.6844V15.543C71.5455 15.9292 71.6889 16.2995 71.9438 16.5725C72.1987 16.8456 72.545 16.9991 72.9054 16.9991H73.0008V10.5917C73.0009 10.3148 72.95 10.0406 72.8512 9.78478C72.7524 9.52893 72.6078 9.29643 72.425 9.10059C72.2423 8.90476 72.0253 8.74942 71.7865 8.64343C71.5477 8.53744 71.2918 8.48291 71.0333 8.48291H68.6916C68.5098 8.48265 68.334 8.55337 68.1973 8.68182L67.909 8.95045L67.6231 8.68182C67.4862 8.55364 67.3105 8.48296 67.1287 8.48291H64.2864C64.0278 8.48269 63.7715 8.53703 63.5325 8.64291C63.2935 8.74879 63.0762 8.90412 62.8932 9.09997C62.7102 9.29582 62.5653 9.5284 62.4662 9.78437C62.3672 10.0403 62.3159 10.3146 62.3159 10.5917Z" fill="#00B4FF"/>
<path d="M41.0107 16.9872C41.601 16.9872 42.0795 16.4746 42.0795 15.8422C42.0795 15.2099 41.601 14.6973 41.0107 14.6973C40.4204 14.6973 39.9419 15.2099 39.9419 15.8422C39.9419 16.4746 40.4204 16.9872 41.0107 16.9872Z" fill="#00B4FF"/>
</g>
<defs>
<clipPath id="clip0_34_180">
<rect width="73" height="17" fill="white"/>
</clipPath>
</defs>
</svg>
