<svg width="25" height="24" viewBox="0 0 25 24" fill="none" xmlns="http://www.w3.org/2000/svg">
<path d="M9.42519 12.0001C9.42519 11.9001 9.44185 11.8085 9.47519 11.7251C9.50852 11.6418 9.56685 11.5585 9.65019 11.4751L14.6002 6.52515C14.7335 6.39182 14.9127 6.32932 15.1377 6.33765C15.3627 6.34598 15.5419 6.41682 15.6752 6.55015C15.8419 6.71682 15.9127 6.89598 15.8877 7.08765C15.8627 7.27932 15.7835 7.45015 15.6502 7.60015L11.2502 12.0001L15.6502 16.4001C15.7835 16.5335 15.8585 16.7126 15.8752 16.9376C15.8919 17.1627 15.8169 17.3418 15.6502 17.4752C15.5169 17.6418 15.3419 17.7126 15.1252 17.6876C14.9085 17.6627 14.7252 17.5835 14.5752 17.4501L9.65019 12.5251C9.56685 12.4418 9.50852 12.3585 9.47519 12.2751C9.44185 12.1918 9.42519 12.1001 9.42519 12.0001Z" fill="white"/>
</svg>
