<svg width="20" height="20" viewBox="0 0 20 20" fill="none" xmlns="http://www.w3.org/2000/svg">
<g clip-path="url(#clip0_34_127)">
<path d="M9.9999 2.1303C12.5631 2.1303 12.8671 2.1399 13.8799 2.1863C16.4815 2.3047 17.6967 3.5391 17.8151 6.1215C17.8615 7.1335 17.8703 7.4375 17.8703 10.0007C17.8703 12.5647 17.8607 12.8679 17.8151 13.8799C17.6959 16.4599 16.4839 17.6967 13.8799 17.8151C12.8671 17.8615 12.5647 17.8711 9.9999 17.8711C7.4367 17.8711 7.1327 17.8615 6.1207 17.8151C3.5127 17.6959 2.3039 16.4559 2.1855 13.8791C2.1391 12.8671 2.1295 12.5639 2.1295 9.9999C2.1295 7.4367 2.1399 7.1335 2.1855 6.1207C2.3047 3.5391 3.5167 2.3039 6.1207 2.1855C7.1335 2.1399 7.4367 2.1303 9.9999 2.1303ZM9.9999 0.399902C7.3927 0.399902 7.0663 0.411102 6.0423 0.457502C2.5559 0.617502 0.618302 2.5519 0.458302 6.0415C0.411102 7.0663 0.399902 7.3927 0.399902 9.9999C0.399902 12.6071 0.411102 12.9343 0.457502 13.9583C0.617502 17.4447 2.5519 19.3823 6.0415 19.5423C7.0663 19.5887 7.3927 19.5999 9.9999 19.5999C12.6071 19.5999 12.9343 19.5887 13.9583 19.5423C17.4415 19.3823 19.3839 17.4479 19.5415 13.9583C19.5887 12.9343 19.5999 12.6071 19.5999 9.9999C19.5999 7.3927 19.5887 7.0663 19.5423 6.0423C19.3855 2.5591 17.4487 0.618302 13.9591 0.458302C12.9343 0.411102 12.6071 0.399902 9.9999 0.399902ZM9.9999 5.0703C7.2775 5.0703 5.0703 7.2775 5.0703 9.9999C5.0703 12.7223 7.2775 14.9303 9.9999 14.9303C12.7223 14.9303 14.9295 12.7231 14.9295 9.9999C14.9295 7.2775 12.7223 5.0703 9.9999 5.0703ZM9.9999 13.1999C8.2327 13.1999 6.7999 11.7679 6.7999 9.9999C6.7999 8.2327 8.2327 6.7999 9.9999 6.7999C11.7671 6.7999 13.1999 8.2327 13.1999 9.9999C13.1999 11.7679 11.7671 13.1999 9.9999 13.1999ZM15.1247 3.7239C14.4879 3.7239 13.9719 4.2399 13.9719 4.8759C13.9719 5.5119 14.4879 6.0279 15.1247 6.0279C15.7607 6.0279 16.2759 5.5119 16.2759 4.8759C16.2759 4.2399 15.7607 3.7239 15.1247 3.7239Z" fill="#5DA0FB"/>
</g>
<defs>
<clipPath id="clip0_34_127">
<rect width="19.2" height="19.2" fill="white" transform="translate(0.399902 0.399902)"/>
</clipPath>
</defs>
</svg>
