<svg width="20" height="20" viewBox="0 0 20 20" fill="none" xmlns="http://www.w3.org/2000/svg">
<g clip-path="url(#clip0_34_113)">
<path d="M15.5999 0.399902H4.3999C2.1911 0.399902 0.399902 2.1911 0.399902 4.3999V15.5999C0.399902 17.8087 2.1911 19.5999 4.3999 19.5999H15.5999C17.8095 19.5999 19.5999 17.8087 19.5999 15.5999V4.3999C19.5999 2.1911 17.8095 0.399902 15.5999 0.399902ZM6.7999 15.5999H4.3999V6.7999H6.7999V15.5999ZM5.5999 5.7855C4.8271 5.7855 4.1999 5.1535 4.1999 4.3743C4.1999 3.5951 4.8271 2.9631 5.5999 2.9631C6.3727 2.9631 6.9999 3.5951 6.9999 4.3743C6.9999 5.1535 6.3735 5.7855 5.5999 5.7855ZM16.3999 15.5999H13.9999V11.1167C13.9999 8.4223 10.7999 8.6263 10.7999 11.1167V15.5999H8.3999V6.7999H10.7999V8.2119C11.9167 6.1431 16.3999 5.9903 16.3999 10.1927V15.5999Z" fill="#5DA0FB"/>
</g>
<defs>
<clipPath id="clip0_34_113">
<rect width="19.2" height="19.2" fill="white" transform="translate(0.399902 0.399902)"/>
</clipPath>
</defs>
</svg>
