<svg width="20" height="20" viewBox="0 0 20 20" fill="none" xmlns="http://www.w3.org/2000/svg">
<g clip-path="url(#clip0_34_121)">
<path fill-rule="evenodd" clip-rule="evenodd" d="M0.399902 0.399902V19.5999H19.5999V0.399902H0.399902ZM16.6382 4.64838L14.3824 15.499C14.3293 15.7551 14.0289 15.8712 13.8169 15.7172L10.7375 13.4815C10.5506 13.3458 10.2957 13.353 10.1167 13.4989L8.40938 14.8906C8.21126 15.0527 7.91267 14.9624 7.8368 14.7183L6.6513 10.9057L3.58845 9.76262C3.27733 9.64607 3.27467 9.20684 3.58491 9.08733L16.1549 4.23817C16.4214 4.13513 16.6963 4.36856 16.6382 4.64838Z" fill="#5DA0FB"/>
<path fill-rule="evenodd" clip-rule="evenodd" d="M13.6318 6.61044L7.64589 10.2971C7.41646 10.4387 7.30847 10.7158 7.38249 10.9752L8.02967 13.2493C8.07571 13.4104 8.30949 13.3939 8.3319 13.2274L8.5001 11.9804C8.53187 11.7456 8.64382 11.5291 8.81751 11.3676L13.7576 6.77552C13.8501 6.68986 13.7393 6.5444 13.6318 6.61044Z" fill="#5DA0FB"/>
</g>
<defs>
<clipPath id="clip0_34_121">
<rect x="0.399902" y="0.399902" width="19.2" height="19.2" rx="9.6" fill="white"/>
</clipPath>
</defs>
</svg>
