<svg width="20" height="20" viewBox="0 0 20 20" fill="none" xmlns="http://www.w3.org/2000/svg">
<g clip-path="url(#clip0_34_117)">
<path d="M19.5999 4.04544C18.8935 4.35904 18.1343 4.57024 17.3375 4.66544C18.1511 4.17824 18.7759 3.40624 19.0695 2.48624C18.3087 2.93744 17.4655 3.26544 16.5679 3.44224C15.8503 2.67664 14.8255 2.19824 13.6927 2.19824C11.1495 2.19824 9.2807 4.57104 9.8551 7.03424C6.5823 6.87024 3.6799 5.30224 1.7367 2.91904C0.704702 4.68944 1.2015 7.00544 2.9551 8.17824C2.3103 8.15744 1.7023 7.98064 1.1719 7.68544C1.1287 9.51024 2.4367 11.2174 4.3311 11.5974C3.7767 11.7478 3.1695 11.783 2.5519 11.6646C3.0527 13.2294 4.5071 14.3678 6.2319 14.3998C4.5759 15.6982 2.4895 16.2782 0.399902 16.0318C2.1431 17.1494 4.2143 17.8014 6.4383 17.8014C13.7519 17.8014 17.8839 11.6246 17.6343 6.08464C18.4039 5.52864 19.0719 4.83504 19.5999 4.04544Z" fill="#5DA0FB"/>
</g>
<defs>
<clipPath id="clip0_34_117">
<rect width="19.2" height="19.2" fill="white" transform="translate(0.399902 0.399902)"/>
</clipPath>
</defs>
</svg>
